<?xml version="1.0" encoding="iso-8859-1"?>
<!-- Generator: Adobe Illustrator 19.0.0, SVG Export Plug-In . SVG Version: 6.00 Build 0)  -->
<svg xmlns="http://www.w3.org/2000/svg" xmlns:xlink="http://www.w3.org/1999/xlink" version="1.1" id="Layer_1" x="0px" y="0px" viewBox="0 0 236.159 236.159" style="enable-background:new 0 0 236.159 236.159;" xml:space="preserve" width="512px" height="512px">
<g>
	<g>
		<path d="M214.145,44.007C214.145,19.742,194.141,0,169.553,0c-10.194,0-19.939,3.389-27.821,9.61    C133.853,3.389,124.106,0,113.912,0C93.529,0,75.765,13.593,70.715,33.055l-0.177,0.679c-4.492-1.185-9.194-1.586-13.921-1.098    c-21.189,2.228-36.615,21.279-34.389,42.468c1.885,17.942,42.903,55.137,60.711,63.963c-11.171,8.02-22.413,22.021-15.469,39.675    l2.363,5.97c8.272,20.828,9.122,24.084,4.003,28.083c-1.797,1.402-2.115,3.995-0.713,5.79c0.814,1.043,2.027,1.588,3.254,1.588    c0.888,0,1.783-0.286,2.536-0.874c10.331-8.065,6.894-16.722-1.41-37.632l-2.353-5.945c-8.286-21.064,19.15-33.972,20.32-34.51    c0.92-0.423,1.564-1.166,1.964-2.015c5.41-3.242,14.164-12.559,22.795-23.904c8.976,7.913,14.602,11.171,18.31,11.975    c0.074,0.179,0.087,0.37,0.188,0.543c0.179,0.306,17.82,30.813,2.502,54.534c-16.873,26.133-3.647,40.115,5.103,49.368    c0.995,1.05,1.954,2.063,2.827,3.05c0.814,0.925,1.952,1.396,3.095,1.396c0.969,0,1.944-0.34,2.728-1.034    c1.709-1.507,1.872-4.114,0.363-5.822c-0.931-1.056-1.954-2.14-3.016-3.262c-8.615-9.108-17.526-18.529-4.167-39.22    c15.324-23.73,3.679-51.461-0.788-60.321c0.143-0.057,0.277-0.094,0.423-0.158C164.648,119.016,214.145,65.943,214.145,44.007z     M92.636,132.482c-1.094-0.351-2.297-0.224-3.292,0.347c-10.073-1.523-57.271-43.018-58.907-58.587    c-1.753-16.664,10.38-31.647,27.043-33.397c1.074-0.113,2.146-0.169,3.213-0.169c6.648,0,13.095,2.172,18.435,6.26    c1.741,1.336,4.221,1.072,5.643-0.593c5.073-5.929,12.143-9.642,19.905-10.458c16.698-1.749,31.647,10.382,33.397,27.043    C139.71,78.497,102.174,128.898,92.636,132.482z M143.611,119.147c-1.16-0.593-2.538-0.602-3.699-0.028    c-1.153-0.331-5.305-2.068-14.785-10.503c11.92-16.874,22.242-36.201,21.155-46.551c-2.228-21.189-21.279-36.633-42.468-34.389    c-8.623,0.907-16.573,4.626-22.746,10.575c-0.904-0.564-1.828-1.087-2.769-1.572l0.402-1.549    c4.108-15.825,18.588-26.878,35.211-26.878c9.348,0,18.229,3.483,25.005,9.809c1.588,1.479,4.048,1.479,5.631,0    c6.78-6.326,15.658-9.809,25.006-9.809c20.038,0,36.339,16.039,36.339,35.755C205.893,62.508,154.677,117.147,143.611,119.147z" fill="#fd5b49"/>
	</g>
</g>
<g>
</g>
<g>
</g>
<g>
</g>
<g>
</g>
<g>
</g>
<g>
</g>
<g>
</g>
<g>
</g>
<g>
</g>
<g>
</g>
<g>
</g>
<g>
</g>
<g>
</g>
<g>
</g>
<g>
</g>
</svg>
