<?xml version="1.0" encoding="utf-8"?>
<!-- Generator: Adobe Illustrator 21.0.0, SVG Export Plug-In . SVG Version: 6.00 Build 0)  -->
<svg version="1.0" id="Capa_1" xmlns="http://www.w3.org/2000/svg" xmlns:xlink="http://www.w3.org/1999/xlink" x="0px" y="0px"
	 viewBox="0 0 960 427" style="enable-background:new 0 0 960 427;" xml:space="preserve">
<style type="text/css">
	.st0{fill:#FFFFFF;}
</style>
<g>
	<path class="st0" d="M118.5,379.5c-11.9,11.7-27.3,17.2-44,17.2c-43,0-61.2-29.6-61.3-59.7c-0.2-30.3,19.5-61,61.3-61
		c15.7,0,30.6,6,42.5,17.7l-14.6,14.1c-7.6-7.4-17.9-10.9-27.9-10.9c-27.9,0-40,20.8-39.9,40.2c0.2,19.2,11.2,39.2,39.9,39.2
		c10.1,0,21.5-4.1,29.1-11.7L118.5,379.5z"/>
	<path class="st0" d="M148.5,278.3v45.3c7.3-9.4,16.2-12.2,25.5-12.2c23.2,0,33.4,15.7,33.4,39.7v43h-20.2v-42.8
		c0-14.9-7.8-21.2-18.5-21.2c-11.9,0-20.2,10.1-20.2,22.3v41.7h-20.2V278.3H148.5z"/>
	<path class="st0" d="M242.5,360.5c1.3,10.1,10.1,17.4,24.3,17.4c7.4,0,17.2-2.8,21.8-7.6l12.9,12.7c-8.6,8.9-22.7,13.2-35.1,13.2
		c-28.1,0-44.8-17.4-44.8-43.5c0-24.8,16.9-42.7,43.3-42.7c27.3,0,44.3,16.9,41.2,50.4H242.5z M286.8,343.8
		c-1.3-10.6-9.6-15.9-21.2-15.9c-10.9,0-19.8,5.3-22.8,15.9H286.8z"/>
	<path class="st0" d="M329.1,394.1v-62.7h-15.2v-17.7h15.2v-5.5c0-21.8,14.7-31.9,31.1-31.9c7.1,0,14.6,2.3,21.2,6.6l-7.4,15
		c-4.3-2.8-8.3-4.3-12.4-4.3c-6.9,0-12.2,4.6-12.2,14.6v5.5h24v17.7h-24v62.7H329.1z"/>
	<path class="st0" d="M430.2,376.2c0.7,5.4,5.4,9.2,12.9,9.2c4,0,9.1-1.5,11.6-4l6.9,6.8c-4.6,4.7-12,7-18.6,7
		c-14.9,0-23.8-9.2-23.8-23.1c0-13.2,9-22.7,23-22.7c14.5,0,23.6,9,21.9,26.8H430.2z M453.8,367.3c-0.7-5.6-5.1-8.4-11.3-8.4
		c-5.8,0-10.6,2.8-12.1,8.4H453.8z"/>
	<path class="st0" d="M504.7,394.1v-22.7c0-6.6-3.6-11.6-10.5-11.6c-6.6,0-11.1,5.5-11.1,12.1v22.2h-10.6v-43.4h9.6l0.7,5.9
		c4.4-4.3,8.8-6.5,14.2-6.5c10.2,0,18.4,7.6,18.4,21.3v22.8H504.7z"/>
	<path class="st0" d="M665.9,379.5c-11.9,11.7-27.3,17.2-44,17.2c-43,0-61.2-29.6-61.3-59.7c-0.2-30.3,19.5-61,61.3-61
		c15.7,0,30.6,6,42.5,17.7l-14.6,14.1c-7.6-7.4-17.9-10.9-27.9-10.9c-27.9,0-40,20.8-39.9,40.2c0.2,19.2,11.2,39.2,39.9,39.2
		c10.1,0,21.5-4.1,29.1-11.7L665.9,379.5z"/>
	<path class="st0" d="M738.7,312.5h19.3v81.5h-19l-1-11.9c-4.6,9.6-17.4,14.2-26.5,14.4c-24.1,0.2-42-14.7-42-43.3
		c0-28.1,18.7-42.8,42.5-42.7c10.9,0,21.3,5.1,26,13.2L738.7,312.5z M689.8,353.2c0,15.5,10.7,24.8,24.1,24.8
		c31.7,0,31.7-49.4,0-49.4C700.5,328.6,689.8,337.7,689.8,353.2z"/>
	<path class="st0" d="M829.2,334.2c-5.8-5.5-12.4-7.3-20.2-7.3c-9.6,0-14.9,3-14.9,8.1c0,5.3,4.8,8.3,15.2,8.9
		c15.4,1,34.9,4.5,34.9,26.1c0,14.4-11.7,26.8-35.1,26.8c-12.9,0-25.8-2.1-37.7-14.6l9.9-14.4c5.8,6.4,19,11.2,28.1,11.4
		c7.6,0.2,14.7-3.8,14.7-9.8c0-5.6-4.6-7.9-16.2-8.6c-15.4-1.2-33.7-6.8-33.7-25.3c0-18.9,19.5-25.5,34.4-25.5
		c12.7,0,22.3,2.5,31.7,10.7L829.2,334.2z"/>
	<path class="st0" d="M922.6,312.5h19.3v81.5h-19l-1-11.9c-4.6,9.6-17.4,14.2-26.5,14.4c-24.1,0.2-42-14.7-42-43.3
		c0-28.1,18.7-42.8,42.5-42.7c10.9,0,21.3,5.1,26,13.2L922.6,312.5z M873.6,353.2c0,15.5,10.7,24.8,24.1,24.8
		c31.7,0,31.7-49.4,0-49.4C884.4,328.6,873.6,337.7,873.6,353.2z"/>
</g>
<circle class="st0" cx="498.1" cy="226.2" r="5.7"/>
<circle class="st0" cx="439.8" cy="226.2" r="5.7"/>
<path class="st0" d="M496.2,288.4l-15.2,11c-1.9-2.7-5.1-4.4-8.6-4.4c-3.6,0-6.7,1.8-8.6,4.4l-15.2-11c-2.3-1.7-5.6,0-5.6,2.9v28.6
	c0,2.9,3.3,4.5,5.6,2.9l15.2-11c1.9,2.7,5.1,4.4,8.6,4.4c3.6,0,6.7-1.8,8.6-4.4l15.2,11c2.3,1.7,5.6,0,5.6-2.9v-28.6
	C501.8,288.4,498.5,286.7,496.2,288.4z"/>
<path class="st0" d="M618.4,98.7c-4.1-25.3-23.3-45.8-48.2-51.8c-12.5-3-24.4-2.1-35.1,1.4c12.8,15.6,19.2,36.1,17.1,55.5
	c-2.1-20.9-11.6-40.1-26.3-53.6c-14.6-13.5-34-21.2-53.6-21.1c-19.6-0.1-39,7.6-53.6,21.1c-14.6,13.5-24.1,32.7-26.3,53.6
	c-2.1-19.3,4.3-39.8,17.1-55.5c-11.3-3.7-23.9-4.5-37.1-0.9c-23.5,6.4-41.3,25.3-45.9,49.3c-7.8,41,23.4,76.8,63,76.8
	c5.4,0,10.6-0.7,15.6-1.9v52.2c0,13.8,0.2,32.2,0.3,43.4c0.1,5.6,4.6,10.1,10.2,10.1h37.4c-4.1-4.7-6.6-10.8-6.6-17.6
	c16.6,6.5,34.9,6.5,51.5,0c0,6.8-2.5,12.9-6.6,17.6H529c5.6,0,10.1-4.5,10.2-10.1c0.1-11.2,0.3-29.6,0.3-43.4v-52.2
	c5,1.3,10.2,1.9,15.6,1.9C594,173.5,624.9,138.8,618.4,98.7z M444,246.1c-7.8,0-14.2-6.4-14.2-14.2s6.4-14.2,14.2-14.2
	s14.2,6.4,14.2,14.2S451.8,246.1,444,246.1z M472.3,175.1c0,0,12.1-9.5,13.2-27.7c0,0-8,13.4-18.4,13.9c0,0,11.6-9.1,15.8-21.2
	c0,0,4.8,9.1,14.1,13.4C497.1,153.4,486.2,172,472.3,175.1z M502,246.1c-7.8,0-14.2-6.4-14.2-14.2s6.4-14.2,14.2-14.2
	s14.2,6.4,14.2,14.2S509.8,246.1,502,246.1z"/>
</svg>
