<?xml version="1.0" encoding="UTF-8"?>
<svg width="656px" height="674px" viewBox="0 0 656 674" version="1.1" xmlns="http://www.w3.org/2000/svg" xmlns:xlink="http://www.w3.org/1999/xlink" xmlns:sketch="http://www.bohemiancoding.com/sketch/ns">
    <!-- Generator: Sketch 3.3.3 (12081) - http://www.bohemiancoding.com/sketch -->
    <title>Succes Chef</title>
    <desc>Created with Sketch.</desc>
    <defs>
        <path id="path-1" d="M0.06,0.141 L655.088,0.141 L655.088,723 L0.06,723 L0.06,0.141 Z"></path>
        <linearGradient x1="100%" y1="0%" x2="0%" y2="100%" id="linearGradient-3">
            <stop stop-color="#F49631" offset="0%"></stop>
            <stop stop-color="#F87A50" offset="46.6600818%"></stop>
            <stop stop-color="#FF4E46" offset="100%"></stop>
        </linearGradient>
    </defs>
    <g id="Page-1" stroke="none" stroke-width="1" fill="none" fill-rule="evenodd" sketch:type="MSPage">
        <g id="Succes-Chef" sketch:type="MSLayerGroup">
            <g id="Group-34">
                <mask id="mask-2" sketch:name="Clip 32" fill="white">
                    <use xlink:href="#path-1"></use>
                </mask>
                <g id="Clip-32"></g>
                <path d="M602.58,342.021 C602.58,508.418 467.688,643.311 301.29,643.311 C134.892,643.311 0,508.418 0,342.021 C0,175.623 134.892,40.73 301.29,40.73 C467.688,40.73 602.58,175.623 602.58,342.021" id="Fill-33" fill="url(#linearGradient-3)" sketch:type="MSShapeGroup" mask="url(#mask-2)"></path>
            </g>
            <path d="M456.063,262.194 L458.661,265.445 C460.845,268.179 464.264,269.621 467.746,269.278 L476.317,268.434 C479.195,268.15 481.689,270.411 481.689,273.303 L481.689,284.898 C481.689,284.898 507.264,283.316 510.979,279.147 C512.589,277.34 513.304,275.432 513.597,273.85 C513.995,271.701 515.809,270.104 517.989,269.935 L541.13,268.147 C543.186,267.988 545.171,267.32 546.906,266.204 L553.139,262.194 L456.063,262.194" id="Fill-35" fill="#FEA55D" sketch:type="MSShapeGroup"></path>
            <path d="M175.153,325.681 C174.863,326.801 174.353,327.851 173.663,328.781 L167.283,337.421 C165.603,339.691 164.963,342.561 165.503,345.331 L167.903,357.551 L144.823,361.691 C144.823,361.691 141.273,343.011 137.723,339.191 C134.173,335.361 112.283,323.741 101.633,323.341 C94.404,323.061 86.224,317.961 81.714,314.711 C79.734,313.281 79.203,310.551 80.514,308.491 C81.394,307.111 82.894,306.351 84.414,306.351 C85.263,306.351 86.114,306.581 86.883,307.071 L93.483,311.281 C94.154,311.711 94.844,312.071 95.553,312.381 C95.553,312.381 95.584,312.401 95.644,312.431 C99.373,314.041 103.643,314.111 107.483,312.551 C107.773,312.431 107.923,312.161 107.923,311.901 C107.923,311.801 107.903,311.691 107.853,311.601 C107.803,311.481 107.713,311.381 107.593,311.301 L105.733,310.101 L99.834,306.291 C98.104,305.181 96.693,303.631 95.733,301.811 L86.753,284.771 C86.073,283.491 86.133,281.941 86.904,280.711 C87.714,279.441 89.024,278.821 90.334,278.821 C91.844,278.821 93.354,279.651 94.053,281.251 L96.894,287.731 L100.663,294.521 C101.213,295.521 101.853,296.471 102.583,297.341 L102.593,297.351 C103.223,298.111 103.913,298.811 104.653,299.461 L110.573,304.631 C111.133,305.121 111.973,305.151 112.563,304.691 C112.953,304.391 113.173,303.931 113.173,303.451 C113.173,303.311 113.153,303.181 113.123,303.051 C113.113,303.011 113.103,302.961 113.083,302.921 L108.813,290.901 C107.193,286.361 106.503,281.551 106.763,276.741 L107.083,270.901 C107.183,269.101 108.393,267.541 110.113,266.981 C110.563,266.841 111.013,266.771 111.453,266.771 C113.703,266.771 115.693,268.531 115.813,270.931 L116.483,284.621 C116.513,285.211 116.563,285.801 116.633,286.381 L116.643,286.391 C116.943,289.001 117.643,291.551 118.733,293.951 L119.413,295.461 C119.903,296.541 120.973,297.261 122.153,297.331 C122.213,297.341 122.283,297.341 122.343,297.341 C123.043,297.341 123.713,297.111 124.243,296.711 C124.783,296.311 125.203,295.751 125.403,295.081 L128.833,284.001 C129.723,281.111 132.393,279.151 135.403,279.151 L136.053,279.151 C137.933,279.151 139.793,279.561 141.493,280.361 L146.723,282.831 C148.193,283.521 148.953,285.171 148.533,286.741 C148.133,288.211 146.793,289.211 145.303,289.211 C145.183,289.211 145.053,289.201 144.933,289.191 L139.533,287.461 C138.003,286.971 136.373,287.861 135.963,289.421 L135.313,291.931 C134.203,294.541 134.213,297.481 135.323,300.081 C136.163,302.051 137.343,303.821 138.783,305.331 C139.023,305.591 139.273,305.831 139.533,306.071 C139.783,306.311 140.053,306.551 140.323,306.771 C142.483,308.551 145.043,309.811 147.853,310.411 L153.553,311.631 C154.723,311.881 155.933,311.421 156.653,310.471 C157.063,309.921 157.273,309.261 157.273,308.611 C157.273,307.901 157.023,307.191 156.533,306.621 L153.293,302.841 C151.633,300.901 150.643,298.481 150.463,295.941 L150.053,290.251 C149.923,288.411 150.333,286.571 151.243,284.971 C151.643,284.271 152.203,283.701 152.873,283.311 C153.543,282.911 154.323,282.701 155.123,282.701 C156.033,282.701 156.903,282.981 157.623,283.471 C158.343,283.951 158.923,284.651 159.263,285.501 L159.913,287.131 L161.693,297.341 L161.813,297.751 C163.293,302.651 165.813,307.161 169.213,310.991 L172.563,314.771 C175.193,317.751 176.173,321.841 175.153,325.681" id="Fill-36" fill="#FEA55D" sketch:type="MSShapeGroup"></path>
            <path d="M162.963,312.041 C162.963,312.041 114.303,330.581 107.483,312.551 C107.773,312.431 107.923,312.161 107.923,311.901 C107.923,311.801 107.903,311.691 107.853,311.601 L110.573,304.631 L113.123,303.051 L122.343,297.341 L135.323,300.081 C136.163,302.051 137.343,303.821 138.783,305.331 C139.023,305.591 139.273,305.831 139.533,306.071 C139.783,306.311 140.053,306.551 140.323,306.771 C142.483,308.551 145.043,309.811 147.853,310.411 L153.553,311.631 C154.723,311.881 155.933,311.421 156.653,310.471 C157.063,309.921 157.273,309.261 157.273,308.611 C157.273,307.901 157.023,307.191 156.533,306.621 L153.293,302.841 C151.633,300.901 150.643,298.481 150.463,295.941 L150.053,290.251 C150.053,290.251 155.633,303.821 162.963,312.041" id="Fill-37" fill="#EC924B" sketch:type="MSShapeGroup"></path>
            <path d="M110.363,316.641 C105.233,317.781 96.594,312.971 95.644,312.431 C99.373,314.041 103.643,314.111 107.483,312.551 C107.773,312.431 107.923,312.161 107.923,311.901 C107.923,311.801 107.903,311.691 107.853,311.601 C107.803,311.481 107.713,311.381 107.593,311.301 L108.164,310.806 L114.463,310.101 C114.463,310.101 115.793,315.431 110.363,316.641" id="Fill-38" fill="#EC924B" sketch:type="MSShapeGroup"></path>
            <path d="M112.563,304.691 L111.463,310.101 L102.593,297.351 C103.223,298.111 103.913,298.811 104.653,299.461 L110.573,304.631 C111.133,305.121 111.973,305.151 112.563,304.691" id="Fill-39" fill="#EC924B" sketch:type="MSShapeGroup"></path>
            <path d="M122.963,298.931 L117.643,300.251 L116.633,286.381 L116.643,286.391 C116.943,289.001 117.643,291.551 118.733,293.951 L119.413,295.461 C119.903,296.541 120.973,297.261 122.153,297.331 L122.963,298.931" id="Fill-40" fill="#EC924B" sketch:type="MSShapeGroup"></path>
            <path d="M137.413,303.711 L137.413,303.721 L128.713,300.251 L135.963,289.421 L135.313,291.931 C134.203,294.541 134.213,297.481 135.323,300.081 C135.873,301.381 136.583,302.601 137.413,303.711" id="Fill-41" fill="#EC924B" sketch:type="MSShapeGroup"></path>
            <path d="M234.313,669.244 L234.313,669.244 C234.313,671.465 236.124,673.259 238.345,673.239 L261.656,673.025 C264.027,673.003 266.211,671.74 267.413,669.697 L267.78,669.071 C268.494,667.857 269.796,667.112 271.203,667.112 L272.008,667.112 C274.2,667.112 275.978,668.89 275.978,671.083 L275.978,673.9 L284.99,673.9 L284.99,662.81 C284.99,660.028 284.368,657.28 283.171,654.768 L278.854,645.714 L265.477,647.489 L263.901,651.24 C261.253,657.542 255.856,662.321 249.242,664.044 C245.787,664.944 242.128,665.271 238.345,665.253 C236.125,665.242 234.313,667.023 234.313,669.244" id="Fill-42" fill="#000000" sketch:type="MSShapeGroup"></path>
            <path d="M294.543,580.921 L294.233,583.161 L284.993,649.261 L246.793,649.261 L239.323,585.581 C239.313,585.551 239.313,585.541 239.313,585.541 L239.263,585.071 L238.253,576.481 L294.543,580.921" id="Fill-43" fill="#E9F2F6" sketch:type="MSShapeGroup"></path>
            <path d="M363.65,669.244 L363.65,669.244 C363.65,671.465 361.839,673.259 359.618,673.239 L336.307,673.025 C333.937,673.003 331.752,671.74 330.551,669.697 L330.183,669.071 C329.469,667.857 328.167,667.112 326.76,667.112 L325.955,667.112 C323.763,667.112 321.985,668.89 321.985,671.083 L321.985,673.9 L312.973,673.9 L312.973,662.81 C312.973,660.028 313.595,657.28 314.792,654.768 L319.109,645.714 L332.486,647.489 L334.062,651.24 C336.71,657.542 342.107,662.321 348.722,664.044 C352.176,664.944 355.835,665.271 359.618,665.253 C361.839,665.242 363.65,667.023 363.65,669.244" id="Fill-44" fill="#000000" sketch:type="MSShapeGroup"></path>
            <path d="M359.703,576.481 L358.653,585.471 L358.363,587.891 C358.363,587.891 358.363,587.901 358.353,587.931 L351.163,649.261 L312.973,649.261 L303.753,583.261 L303.423,580.921 L359.703,576.481" id="Fill-45" fill="#E9F2F6" sketch:type="MSShapeGroup"></path>
            <path d="M294.233,583.161 L291.083,605.651 L290.463,606.431 L239.313,585.541 L238.253,585.111 L239.263,585.071 L294.233,583.161" id="Fill-46" fill="#DFE8EC" sketch:type="MSShapeGroup"></path>
            <path d="M358.653,585.471 L358.363,587.891 L307.743,611.821 L303.753,583.261 L358.653,585.471" id="Fill-47" fill="#DFE8EC" sketch:type="MSShapeGroup"></path>
            <path d="M253.893,649.261 L246.793,649.261 L239.323,585.581 C239.663,587.441 250.543,646.961 253.893,649.261" id="Fill-48" fill="#DFE8EC" sketch:type="MSShapeGroup"></path>
            <path d="M358.353,587.931 L351.163,649.261 L338.313,649.261 C348.743,643.431 358.063,589.611 358.353,587.931" id="Fill-49" fill="#DFE8EC" sketch:type="MSShapeGroup"></path>
            <path d="M521.633,274.261 C521.633,274.261 486.983,377.991 471.013,390.031 C459.423,398.771 404.833,395.801 375.763,393.501 C373.343,393.301 371.093,393.111 369.063,392.941 C368.473,392.901 367.913,392.851 367.363,392.801 L422.833,545.501 C424.983,551.421 422.803,558.021 417.603,561.571 C404.633,570.441 390.603,577.431 375.893,582.631 C331.113,598.471 279.993,597.791 232.833,583.541 C213.693,577.771 195.213,569.761 178.073,559.711 C172.183,556.251 169.653,549.041 172.203,542.701 L214.643,437.101 C200.293,446.111 180.073,457.251 167.903,457.251 C147.493,457.251 131.513,360.211 131.513,360.211 L175.303,355.031 C175.053,357.221 174.943,359.461 174.963,361.721 L174.963,361.751 C175.183,385.781 189.653,412.151 191.273,417.021 C192.613,421.031 220.703,398.891 234.493,387.711 C234.503,387.711 234.503,387.701 234.503,387.701 L239.963,374.121 L360.573,374.121 L361.003,375.291 L363.173,365.241 C363.173,365.241 438.613,365.681 443.933,357.701 C449.053,350.021 478.683,291.141 474.703,280.241 C474.543,279.811 474.363,279.461 474.163,279.191 C474.153,279.161 474.143,279.151 474.143,279.151 L521.633,274.261" id="Fill-50" fill="#FFFFFF" sketch:type="MSShapeGroup"></path>
            <path d="M270.804,408.922 L277.009,408.922 L277.009,507.48 L270.804,507.48 L270.804,408.922 Z" id="Fill-51" fill="#E9F2F6" sketch:type="MSShapeGroup"></path>
            <path d="M232.833,583.541 C213.693,577.771 195.213,569.761 178.073,559.711 C172.183,556.251 169.653,549.041 172.203,542.701 L214.643,437.101 C200.293,446.111 180.073,457.251 167.903,457.251 C147.493,457.251 131.513,360.211 131.513,360.211 L175.303,355.031 C175.053,357.221 174.943,359.461 174.963,361.721 L174.963,361.751 C174.473,364.971 152.953,498.211 234.493,387.721 C233.763,389.701 177.953,540.531 232.833,583.541" id="Fill-52" fill="#E9F2F6" sketch:type="MSShapeGroup"></path>
            <path d="M422.833,545.501 C424.983,551.421 422.803,558.021 417.603,561.571 C404.633,570.441 390.603,577.431 375.893,582.631 C398.043,549.881 380.213,447.151 371.333,403.721 L422.833,545.501" id="Fill-53" fill="#E9F2F6" sketch:type="MSShapeGroup"></path>
            <path d="M521.633,274.261 C521.633,274.261 486.983,377.991 471.013,390.031 C458.453,399.501 395.433,395.221 369.063,392.941 C367.833,387.261 367.063,384.021 367.063,384.021 C367.063,384.021 439.043,381.021 469.043,373.201 C497.053,365.901 479.773,290.241 474.703,280.241 C474.403,279.651 474.213,279.291 474.163,279.191 C474.153,279.161 474.143,279.151 474.143,279.151 L521.633,274.261" id="Fill-54" fill="#E9F2F6" sketch:type="MSShapeGroup"></path>
            <path d="M406.483,500.501 C402.743,507.231 399.593,512.071 398.183,512.261 C393.443,512.921 361.503,377.431 361.013,375.311 L375.763,393.501 C373.343,393.301 371.093,393.111 369.063,392.941 C368.473,392.901 367.913,392.851 367.363,392.801 L406.483,500.501" id="Fill-55" fill="#E9F2F6" sketch:type="MSShapeGroup"></path>
            <path d="M298.607,447.859 C298.607,450.108 296.784,451.931 294.535,451.931 C292.286,451.931 290.463,450.108 290.463,447.859 C290.463,445.61 292.286,443.787 294.535,443.787 C296.784,443.787 298.607,445.61 298.607,447.859" id="Fill-56" fill="#000000" sketch:type="MSShapeGroup"></path>
            <path d="M336.531,447.859 C336.531,450.108 334.708,451.931 332.459,451.931 C330.21,451.931 328.387,450.108 328.387,447.859 C328.387,445.61 330.21,443.787 332.459,443.787 C334.708,443.787 336.531,445.61 336.531,447.859" id="Fill-57" fill="#000000" sketch:type="MSShapeGroup"></path>
            <path d="M298.607,477.67 C298.607,479.918 296.784,481.742 294.535,481.742 C292.286,481.742 290.463,479.918 290.463,477.67 C290.463,475.421 292.286,473.598 294.535,473.598 C296.784,473.598 298.607,475.421 298.607,477.67" id="Fill-58" fill="#000000" sketch:type="MSShapeGroup"></path>
            <path d="M336.531,477.67 C336.531,479.918 334.708,481.742 332.459,481.742 C330.21,481.742 328.387,479.918 328.387,477.67 C328.387,475.421 330.21,473.598 332.459,473.598 C334.708,473.598 336.531,475.421 336.531,477.67" id="Fill-59" fill="#000000" sketch:type="MSShapeGroup"></path>
            <path d="M298.607,507.48 C298.607,509.729 296.784,511.552 294.535,511.552 C292.286,511.552 290.463,509.729 290.463,507.48 C290.463,505.231 292.286,503.408 294.535,503.408 C296.784,503.408 298.607,505.231 298.607,507.48" id="Fill-60" fill="#000000" sketch:type="MSShapeGroup"></path>
            <path d="M336.531,507.48 C336.531,509.729 334.708,511.552 332.459,511.552 C330.21,511.552 328.387,509.729 328.387,507.48 C328.387,505.231 330.21,503.408 332.459,503.408 C334.708,503.408 336.531,505.231 336.531,507.48" id="Fill-61" fill="#000000" sketch:type="MSShapeGroup"></path>
            <path d="M298.607,537.291 C298.607,539.539 296.784,541.362 294.535,541.362 C292.286,541.362 290.463,539.539 290.463,537.291 C290.463,535.042 292.286,533.219 294.535,533.219 C296.784,533.219 298.607,535.042 298.607,537.291" id="Fill-62" fill="#000000" sketch:type="MSShapeGroup"></path>
            <path d="M336.531,537.291 C336.531,539.539 334.708,541.362 332.459,541.362 C330.21,541.362 328.387,539.539 328.387,537.291 C328.387,535.042 330.21,533.219 332.459,533.219 C334.708,533.219 336.531,535.042 336.531,537.291" id="Fill-63" fill="#000000" sketch:type="MSShapeGroup"></path>
            <path d="M368.853,356.481 C367.983,368.141 359.213,378.581 345.633,385.961 C332.893,392.871 315.933,397.091 297.323,397.091 C268.203,397.091 243.143,386.761 231.963,371.941 C228.363,367.171 226.203,361.931 225.803,356.421 L227.213,353.041 L228.263,350.531 L226.643,347.781 C222.213,340.681 261.673,312.041 297.323,312.041 C331.433,312.041 359.973,326.211 367.173,345.181 L363.633,347.931 L368.853,356.481" id="Fill-64" fill="#DA0907" sketch:type="MSShapeGroup"></path>
            <path d="M284.253,383.841 C284.253,383.841 250.403,381.681 231.963,371.941 C228.363,367.171 226.203,361.931 225.803,356.421 L227.213,353.041 C227.213,353.041 245.303,372.931 267.133,378.601 C288.963,384.261 284.253,383.841 284.253,383.841" id="Fill-65" fill="#B50806" sketch:type="MSShapeGroup"></path>
            <path d="M368.853,356.481 C367.983,368.141 359.213,378.581 345.633,385.961 L321.533,390.261 L345.683,380.261 L312.823,383.701 C320.083,382.791 353.783,377.031 363.633,347.931 L368.853,356.481" id="Fill-66" fill="#B50806" sketch:type="MSShapeGroup"></path>
            <path d="M354.113,443.791 C354.113,443.791 352.913,443.571 350.913,443.031 C344.533,441.301 329.973,436.261 320.083,424.431 C312.893,415.821 309.683,405.421 308.253,397.851 C307.093,391.761 307.093,387.511 307.093,387.511 C307.093,387.511 328.133,391.321 341.113,406.861 C354.103,422.401 354.113,443.791 354.113,443.791" id="Fill-67" fill="#DA0907" sketch:type="MSShapeGroup"></path>
            <path d="M350.913,443.031 C344.533,441.301 329.973,436.261 320.083,424.431 C312.893,415.821 309.683,405.421 308.253,397.851 C314.633,399.581 329.193,404.621 339.083,416.451 C346.273,425.061 349.483,435.461 350.913,443.031" id="Fill-68" fill="#B50806" sketch:type="MSShapeGroup"></path>
            <path d="M293.163,390.621 C293.163,390.621 285.923,410.741 268.443,420.971 C255.023,428.821 239.483,428.571 232.983,428.031 C231.013,427.861 229.873,427.671 229.873,427.671 C229.873,427.671 237.123,407.551 254.593,397.321 C262.613,392.631 271.393,390.831 278.543,390.261 C286.983,389.591 293.163,390.621 293.163,390.621" id="Fill-69" fill="#B50806" sketch:type="MSShapeGroup"></path>
            <path d="M281.653,390.621 C281.653,390.621 274.413,410.741 256.933,420.971 C248.913,425.661 240.133,427.461 232.983,428.031 C231.013,427.861 229.873,427.671 229.873,427.671 C229.873,427.671 237.123,407.551 254.593,397.321 C262.613,392.631 271.393,390.831 278.543,390.261 C280.513,390.431 281.653,390.621 281.653,390.621" id="Fill-70" fill="#DA0907" sketch:type="MSShapeGroup"></path>
            <path d="M315.13,390.033 C315.13,398.333 306.94,405.061 296.837,405.061 C286.734,405.061 278.543,398.333 278.543,390.033 C278.543,381.733 286.734,375.005 296.837,375.005 C306.94,375.005 315.13,381.733 315.13,390.033" id="Fill-71" fill="#B50806" sketch:type="MSShapeGroup"></path>
            <path d="M311.563,383.841 L312.163,383.781 C311.883,383.811 311.683,383.831 311.563,383.841" id="Fill-72" fill="#FFFFFF" sketch:type="MSShapeGroup"></path>
            <path d="M375.263,296.011 C375.263,338.051 341.673,372.231 299.873,373.201 C299.263,373.221 298.653,373.231 298.043,373.231 C255.393,373.231 220.823,338.661 220.823,296.011 C220.823,253.361 255.393,218.791 298.043,218.791 C340.683,218.791 375.263,253.361 375.263,296.011" id="Fill-73" fill="#FEA55D" sketch:type="MSShapeGroup"></path>
            <path d="M375.263,296.011 C375.263,338.051 341.673,372.231 299.873,373.201 C309.613,359.501 305.943,284.921 301.343,279.151 C296.463,273.021 298.043,218.791 298.043,218.791 C340.683,218.791 375.263,253.361 375.263,296.011" id="Fill-74" fill="#FC8A4A" sketch:type="MSShapeGroup"></path>
            <path d="M322.785,330.612 C322.785,338.109 312.951,344.186 300.82,344.186 C288.689,344.186 278.854,338.109 278.854,330.612 C278.854,323.116 288.689,317.038 300.82,317.038 C312.951,317.038 322.785,323.116 322.785,330.612" id="Fill-75" fill="#D46222" sketch:type="MSShapeGroup"></path>
            <path d="M322.785,325.612 C322.785,333.109 312.951,339.186 300.82,339.186 C288.689,339.186 278.854,333.109 278.854,325.612 C278.854,318.116 288.689,312.038 300.82,312.038 C312.951,312.038 322.785,318.116 322.785,325.612" id="Fill-76" fill="#FFFFFF" sketch:type="MSShapeGroup"></path>
            <path d="M300.825,318.436 C287.676,318.436 277.009,324.516 277.009,332.016 L282.613,332.016 C282.613,326.276 290.765,321.636 300.825,321.636 C310.874,321.636 319.026,326.276 319.026,332.016 L324.63,332.016 C324.63,324.516 313.974,318.436 300.825,318.436" id="Fill-77" fill="#D46222" sketch:type="MSShapeGroup"></path>
            <path d="M357.42,330.149 C355.869,326.08 353.794,322.175 350.988,318.498 C333.227,295.222 317.039,321.223 299.708,311.397 C301.259,315.466 303.335,319.372 306.141,323.05 C323.901,346.325 340.089,320.322 357.42,330.149" id="Fill-78" fill="#6B2706" sketch:type="MSShapeGroup"></path>
            <path d="M241.996,330.149 C243.547,326.08 245.622,322.175 248.428,318.498 C266.189,295.222 282.376,321.223 299.708,311.397 C298.156,315.466 296.081,319.372 293.274,323.05 C275.515,346.325 259.327,320.322 241.996,330.149" id="Fill-79" fill="#6B2706" sketch:type="MSShapeGroup"></path>
            <path d="M357.423,330.151 C340.093,320.321 323.903,346.321 306.143,323.051 C303.333,319.371 301.263,315.471 299.703,311.401 C301.653,312.501 303.593,313.161 305.523,313.471 C305.723,313.751 305.933,314.031 306.143,314.311 C321.893,334.961 336.413,316.831 351.593,319.341 C354.103,322.761 355.993,326.391 357.423,330.151" id="Fill-80" fill="#571F05" sketch:type="MSShapeGroup"></path>
            <path d="M299.703,311.401 C298.153,315.471 296.083,319.371 293.273,323.051 C275.513,346.321 259.323,320.321 241.993,330.151 C243.423,326.391 245.313,322.761 247.803,319.341 C262.983,316.821 277.513,334.971 293.273,314.311 C293.483,314.031 293.693,313.751 293.893,313.471 C295.813,313.151 297.753,312.501 299.703,311.401" id="Fill-81" fill="#571F05" sketch:type="MSShapeGroup"></path>
            <path d="M280.671,262.23 L257.274,270.672 C254.458,271.688 251.351,270.229 250.335,267.413 C249.319,264.597 250.778,261.49 253.594,260.474 L276.991,252.032 C279.807,251.016 282.914,252.475 283.93,255.291 C284.946,258.107 283.487,261.214 280.671,262.23" id="Fill-82" fill="#602D00" sketch:type="MSShapeGroup"></path>
            <path d="M315.026,262.23 L338.423,270.672 C341.239,271.688 344.345,270.229 345.362,267.413 C346.378,264.597 344.918,261.49 342.102,260.474 L318.706,252.032 C315.889,251.016 312.783,252.475 311.767,255.291 C310.751,258.107 312.21,261.214 315.026,262.23" id="Fill-83" fill="#602D00" sketch:type="MSShapeGroup"></path>
            <path d="M317.459,296.925 C317.459,309.41 309.512,319.532 299.708,319.532 C289.904,319.532 281.956,309.41 281.956,296.925 C281.956,284.44 299.401,274.319 299.708,274.319 C300.015,274.319 317.459,284.44 317.459,296.925" id="Fill-84" fill="#FEB36D" sketch:type="MSShapeGroup"></path>
            <path d="M394.06,297.342 C394.06,307.391 385.913,315.538 375.864,315.538 C365.815,315.538 357.669,307.391 357.669,297.342 C357.669,287.293 365.815,279.147 375.864,279.147 C385.913,279.147 394.06,287.293 394.06,297.342" id="Fill-85" fill="#FC8A4A" sketch:type="MSShapeGroup"></path>
            <path d="M378.548,288.177 C378.081,288.004 377.694,288.597 378.042,288.953 C382.433,293.438 387.024,295.093 381.46,303.29 C380.784,304.245 379.72,305.722 378.899,306.859 C378.598,307.276 379.084,307.81 379.523,307.544 C380.713,306.825 381.977,305.884 383.182,304.752 C389.359,298.767 388.386,291.815 378.548,288.177" id="Fill-86" fill="#DB7841" sketch:type="MSShapeGroup"></path>
            <path d="M383.748,293.621 C383.748,294.405 382.283,295.041 380.474,295.041 C378.666,295.041 377.2,294.405 377.2,293.621 C377.2,292.836 378.666,292.2 380.474,292.2 C382.283,292.2 383.748,292.836 383.748,293.621" id="Fill-87" fill="#DB7841" sketch:type="MSShapeGroup"></path>
            <path d="M239.593,297.342 C239.593,307.391 231.447,315.538 221.398,315.538 C211.349,315.538 203.203,307.391 203.203,297.342 C203.203,287.293 211.349,279.147 221.398,279.147 C231.447,279.147 239.593,287.293 239.593,297.342" id="Fill-88" fill="#FEA55D" sketch:type="MSShapeGroup"></path>
            <path d="M219.661,288.177 C220.128,288.004 220.515,288.597 220.167,288.953 C215.777,293.438 211.185,295.093 216.749,303.29 C217.425,304.245 218.489,305.722 219.31,306.859 C219.611,307.276 219.125,307.81 218.686,307.544 C217.496,306.825 216.232,305.884 215.027,304.752 C208.851,298.767 209.823,291.815 219.661,288.177" id="Fill-89" fill="#D48A4E" sketch:type="MSShapeGroup"></path>
            <path d="M220.301,293.621 C220.301,294.405 218.835,295.041 217.027,295.041 C215.219,295.041 213.753,294.405 213.753,293.621 C213.753,292.836 215.219,292.2 217.027,292.2 C218.835,292.2 220.301,292.836 220.301,293.621" id="Fill-90" fill="#D48A4E" sketch:type="MSShapeGroup"></path>
            <path d="M258.966,284.526 C258.638,284.526 258.308,284.419 258.032,284.198 C257.384,283.682 257.278,282.738 257.795,282.09 C258,281.833 262.882,275.803 268.99,275.735 C272.042,275.704 274.82,277.136 277.213,280.002 C277.744,280.638 277.659,281.583 277.023,282.115 C276.386,282.646 275.441,282.561 274.91,281.925 C273.098,279.755 271.201,278.715 269.023,278.735 C264.323,278.787 260.181,283.91 260.14,283.961 C259.843,284.332 259.407,284.526 258.966,284.526" id="Fill-91" fill="#000000" sketch:type="MSShapeGroup"></path>
            <path d="M338.96,284.526 C338.519,284.526 338.084,284.333 337.788,283.963 C337.738,283.902 333.568,278.78 328.893,278.735 L328.831,278.735 C326.711,278.735 324.807,279.779 323.015,281.925 C322.485,282.561 321.54,282.646 320.902,282.115 C320.266,281.583 320.181,280.638 320.712,280.002 C323.078,277.17 325.808,275.735 328.829,275.735 L328.935,275.735 C335.044,275.803 339.926,281.833 340.131,282.09 C340.648,282.738 340.542,283.682 339.894,284.198 C339.618,284.419 339.288,284.526 338.96,284.526" id="Fill-92" fill="#000000" sketch:type="MSShapeGroup"></path>
            <path d="M237.893,247.461 L234.493,275.601 L232.293,290.261 L225.803,292.201 L221.393,279.151 L221.283,278.571 C220.633,275.261 220.723,271.851 221.553,268.581 L223.763,259.811 C225.033,254.751 228.763,250.671 233.693,248.941 L237.893,247.461" id="Fill-93" fill="#602D00" sketch:type="MSShapeGroup"></path>
            <path d="M237.893,247.461 L233.693,248.941 C228.763,250.671 225.033,254.751 223.763,259.811 L221.553,268.581 C220.723,271.851 220.633,275.261 221.283,278.571 L221.393,279.151 L225.803,292.201 C225.803,292.201 224.433,286.221 224.666,278.24 L231.088,282.431 C227.544,278.512 225.882,274.907 225.106,272.564 C225.391,270.334 225.833,268.033 226.471,265.723 L229.873,266.773 C228.621,265.479 228.071,263.224 227.83,261.62 C229.835,256.478 232.993,251.505 237.893,247.461" id="Fill-94" fill="#4A2300" sketch:type="MSShapeGroup"></path>
            <path d="M375.153,278.571 L375.043,279.151 L370.633,292.201 L364.143,290.261 L361.943,275.601 L358.543,247.461 C358.543,247.461 358.553,247.471 358.583,247.481 L362.743,248.941 C367.673,250.671 371.403,254.751 372.673,259.811 L374.883,268.581 C375.713,271.851 375.803,275.261 375.153,278.571" id="Fill-95" fill="#602D00" sketch:type="MSShapeGroup"></path>
            <path d="M367.083,253.264 C367.083,253.264 367.67,262.426 364.463,266.171 L372.463,266.171 L367.083,253.264" id="Fill-96" fill="#4A2300" sketch:type="MSShapeGroup"></path>
            <path d="M372.463,269.831 C372.463,269.831 368.463,284.611 365.713,288.146 L374.213,277.235 L372.463,269.831" id="Fill-97" fill="#4A2300" sketch:type="MSShapeGroup"></path>
            <path d="M374.883,268.581 L372.673,259.811 C371.403,254.751 367.673,250.671 362.743,248.941 L358.583,247.481 C359.464,247.917 375.158,256.171 371.433,286.857 C371.183,287.964 364.143,290.261 364.143,290.261 L370.633,292.201 L375.043,279.151 L375.153,278.571 C375.803,275.261 375.713,271.851 374.883,268.581" id="Fill-98" fill="#4A2300" sketch:type="MSShapeGroup"></path>
            <path d="M528.3,102.548 C528.3,106.782 524.868,110.214 520.633,110.214 C516.399,110.214 512.967,106.782 512.967,102.548 C512.967,98.313 516.399,94.881 520.633,94.881 C524.868,94.881 528.3,98.313 528.3,102.548" id="Fill-99" fill="#E8E8E8" sketch:type="MSShapeGroup"></path>
            <path d="M528.303,102.551 C528.303,106.781 524.863,110.211 520.633,110.211 C519.943,110.211 519.273,110.121 518.633,109.951 C521.893,109.061 524.303,106.091 524.303,102.551 C524.303,99.001 521.893,96.031 518.633,95.151 C519.273,94.971 519.943,94.881 520.633,94.881 C524.863,94.881 528.303,98.311 528.303,102.551" id="Fill-100" fill="#E0E0E0" sketch:type="MSShapeGroup"></path>
            <path d="M371.203,146.151 C371.333,149.331 371.123,152.581 370.533,155.871 L357.893,247.461 C352.603,243.841 347.303,240.701 342.013,238.051 C308.583,221.241 275.163,223.541 241.733,244.931 C240.453,245.741 239.173,246.591 237.893,247.461 L225.253,155.871 C224.663,152.581 224.453,149.331 224.583,146.151 C224.503,145.181 224.443,144.211 224.443,143.231 C224.443,137.621 225.893,132.241 228.563,127.231 C228.973,126.441 229.423,125.671 229.903,124.911 C233.383,119.321 238.403,114.251 244.623,109.941 C247.483,107.951 250.603,106.131 253.933,104.481 C266.183,98.451 281.403,94.881 297.893,94.881 C298.113,94.881 298.323,94.881 298.543,94.891 C301.393,94.901 304.193,95.021 306.953,95.251 L306.963,95.251 C321.833,96.451 335.323,100.581 346.063,106.731 C351.173,109.651 355.653,113.021 359.373,116.761 C363.863,121.261 367.233,126.291 369.233,131.671 C369.823,133.221 370.283,134.811 370.623,136.421 C371.103,138.641 371.353,140.921 371.353,143.231 C371.353,144.211 371.293,145.181 371.203,146.151" id="Fill-101" fill="#FFFFFF" sketch:type="MSShapeGroup"></path>
            <path d="M257.273,122.706 C257.273,151.01 234.328,173.955 206.024,173.955 C177.719,173.955 154.774,151.01 154.774,122.706 C154.774,94.401 177.719,71.456 206.024,71.456 C234.328,71.456 257.273,94.401 257.273,122.706" id="Fill-102" fill="#FFFFFF" sketch:type="MSShapeGroup"></path>
            <path d="M320.566,59.03 C320.566,89.422 295.928,114.059 265.536,114.059 C235.145,114.059 210.507,89.422 210.507,59.03 C210.507,28.638 235.145,4 265.536,4 C295.928,4 320.566,28.638 320.566,59.03" id="Fill-103" fill="#FFFFFF" sketch:type="MSShapeGroup"></path>
            <path d="M404.803,59.251 C404.803,64.291 404.173,69.181 402.983,73.851 C396.483,99.431 373.293,118.351 345.693,118.351 C313.053,118.351 286.593,91.891 286.593,59.251 C286.593,26.601 313.053,0.141 345.693,0.141 C351.703,0.141 357.503,1.041 362.963,2.711 C367.233,4.001 371.303,5.781 375.103,7.961 C375.103,7.961 375.113,7.961 375.113,7.971 C391.243,17.241 402.583,33.901 404.503,53.341 C404.703,55.281 404.803,57.251 404.803,59.251" id="Fill-104" fill="#FFFFFF" sketch:type="MSShapeGroup"></path>
            <path d="M404.313,51.651 C398.613,24.971 374.903,9.971 346.523,9.971 C329.643,9.971 314.423,17.051 303.653,28.401 C293.853,19.351 280.753,13.821 266.363,13.821 C235.963,13.821 211.333,33.461 211.333,63.851 C211.333,66.191 211.483,68.501 211.763,70.761 C210.933,66.981 210.503,63.061 210.503,59.031 C210.503,28.641 235.143,4.001 265.533,4.001 C279.933,4.001 293.023,9.531 302.833,18.581 C313.603,7.231 328.813,0.141 345.693,0.141 C375.763,0.141 400.593,22.591 404.313,51.651" id="Fill-105" fill="#E9F2F6" sketch:type="MSShapeGroup"></path>
            <path d="M436.063,121.16 C436.063,146.65 415.399,167.313 389.909,167.313 C364.419,167.313 343.755,146.65 343.755,121.16 C343.755,95.67 364.419,75.006 389.909,75.006 C415.399,75.006 436.063,95.67 436.063,121.16" id="Fill-106" fill="#FFFFFF" sketch:type="MSShapeGroup"></path>
            <path d="M436.063,121.161 C436.063,146.651 415.403,167.311 389.913,167.311 C388.873,167.311 387.853,167.281 386.833,167.211 C410.883,165.621 429.903,145.611 429.903,121.161 C429.903,96.711 410.883,76.691 386.833,75.101 C387.853,75.031 388.873,75.001 389.913,75.001 C415.403,75.001 436.063,95.671 436.063,121.161" id="Fill-107" fill="#E9F2F6" sketch:type="MSShapeGroup"></path>
            <path d="M374.666,121.84 C374.666,146.396 341.835,166.291 301.343,166.291 C260.851,166.291 228.02,146.396 228.02,121.84 C228.02,120.669 228.1,119.497 228.247,118.35 C231.178,141.267 262.796,159.312 301.343,159.312 C339.89,159.312 371.508,141.267 374.439,118.35 C374.586,119.497 374.666,120.669 374.666,121.84" id="Fill-108" fill="#E9F2F6" sketch:type="MSShapeGroup"></path>
            <path d="M213.227,71.954 C210.669,71.594 208.051,71.422 205.385,71.455 C178.208,71.786 155.745,93.72 154.805,120.882 C154.643,125.572 155.111,130.129 156.133,134.461 C155.793,132.101 155.623,129.701 155.623,127.251 C155.623,98.951 178.573,76.001 206.873,76.001 C214.853,76.001 222.403,77.821 229.133,81.071 C225.129,76.184 219.483,72.835 213.227,71.954" id="Fill-109" fill="#E9F2F6" sketch:type="MSShapeGroup"></path>
            <path d="M241.733,244.931 C240.453,245.741 239.173,246.591 237.893,247.461 L227.643,173.201 L228.023,171.171 C227.623,173.021 234.223,209.831 238.253,222.051 C240.423,228.621 241.343,237.821 241.733,244.931" id="Fill-110" fill="#E9F2F6" sketch:type="MSShapeGroup"></path>
            <path d="M369.603,162.611 L357.893,247.461 C352.603,243.841 347.303,240.701 342.013,238.051 C343.633,234.561 350.001,230.457 354.113,222.051 C358.537,213.011 367.093,177.501 369.603,162.611" id="Fill-111" fill="#E9F2F6" sketch:type="MSShapeGroup"></path>
            <path d="M655.088,220.313 C655.088,245.64 594.891,266.171 520.633,266.171 C446.376,266.171 386.179,245.64 386.179,220.313 C386.179,194.987 446.376,174.455 520.633,174.455 C594.891,174.455 655.088,194.987 655.088,220.313" id="Fill-112" fill="#D1D1D1" sketch:type="MSShapeGroup"></path>
            <path d="M386.179,211.195 L655.088,211.195 L655.088,220.313 L386.179,220.313 L386.179,211.195 Z" id="Fill-113" fill="#D1D1D1" sketch:type="MSShapeGroup"></path>
            <path d="M655.088,211.195 C655.088,236.522 594.891,257.053 520.633,257.053 C446.376,257.053 386.179,236.522 386.179,211.195 C386.179,185.869 446.376,165.337 520.633,165.337 C594.891,165.337 655.088,185.869 655.088,211.195" id="Fill-114" fill="#FFFFFF" sketch:type="MSShapeGroup"></path>
            <path d="M644.493,221.534 C599.505,258.593 441.75,258.576 396.774,221.534 C393.693,218.997 392.035,215.11 392.214,211.123 C394.411,162.045 445.399,111.321 520.633,111.321 C595.835,111.321 646.857,162.016 649.053,211.123 C649.231,215.11 647.574,218.996 644.493,221.534" id="Fill-115" fill="#D1D1D1" sketch:type="MSShapeGroup"></path>
            <path d="M644.493,219.534 C599.505,256.593 441.75,256.576 396.774,219.534 C393.693,216.997 392.035,213.11 392.214,209.123 C394.411,160.045 445.399,109.321 520.633,109.321 C595.835,109.321 646.857,160.016 649.053,209.123 C649.231,213.11 647.574,216.996 644.493,219.534" id="Fill-116" fill="#E8E8E8" sketch:type="MSShapeGroup"></path>
            <path d="M649.053,209.121 C649.233,213.111 647.573,217.001 644.493,219.531 C620.033,239.681 562.263,248.871 507.393,247.111 C553.463,245.631 597.473,236.441 618.003,219.531 C621.083,217.001 622.743,213.111 622.563,209.121 C620.503,162.951 575.283,115.391 507.383,109.861 C511.713,109.501 516.123,109.321 520.633,109.321 C595.833,109.321 646.853,160.011 649.053,209.121" id="Fill-117" fill="#E0E0E0" sketch:type="MSShapeGroup"></path>
            <path d="M505.843,113.621 C457.622,126.202 425.302,158.062 412.578,192.098 C411.964,193.742 410.325,194.773 408.573,194.665 C405.774,194.493 403.998,191.589 405.12,189.019 C419.583,155.9 452.721,125.723 501.033,114.651 C502.633,114.281 504.243,113.931 505.843,113.621" id="Fill-118" fill="#FFFFFF" sketch:type="MSShapeGroup"></path>
        </g>
    </g>
</svg>