<?xml version="1.0" encoding="iso-8859-1"?>
<!-- Generator: Adobe Illustrator 19.0.0, SVG Export Plug-In . SVG Version: 6.00 Build 0)  -->
<svg xmlns="http://www.w3.org/2000/svg" xmlns:xlink="http://www.w3.org/1999/xlink" version="1.1" id="Capa_1" x="0px" y="0px" viewBox="0 0 470 470" style="enable-background:new 0 0 470 470;" xml:space="preserve" width="512px" height="512px">
<g>
	<path d="M462.5,344.877h-19.169h-26.95c2.548-12.341,3.858-24.955,3.858-37.63c0-54.493-23.516-105.38-64.739-140.677l24.867-39.58   l18.849-4.303c6.239-1.423,11.551-5.192,14.955-10.61s4.494-11.838,3.069-18.076c-2.503-10.968-12.101-18.628-23.34-18.628   c-1.791,0-3.59,0.204-5.347,0.604l-9.981,2.279l-2.279-9.981c-2.503-10.968-12.101-18.628-23.339-18.628   c-1.791,0-3.59,0.204-5.347,0.604c-12.879,2.94-20.964,15.809-18.024,28.688l4.304,18.85l-24.885,39.609   c-23.35-10.205-48.209-15.388-74.001-15.388c-75.067,0-139.847,44.885-168.915,109.224c-0.286,0.489-0.517,1.013-0.687,1.567   c-10.046,22.796-15.637,47.979-15.637,74.448c0,12.675,1.31,25.289,3.858,37.63h-26.64H7.5c-4.143,0-7.5,3.358-7.5,7.5   s3.357,7.5,7.5,7.5h14.186c4.575,10.931,18.452,34.951,55.977,51.116c-0.152,0.596-0.242,1.218-0.242,1.861   c0,4.142,3.357,7.5,7.5,7.5H363.14c0.056,0,22.249,0,22.249,0c4.143,0,7.5-3.358,7.5-7.5c0-0.644-0.09-1.265-0.242-1.861   c37.525-16.165,51.402-40.185,55.977-51.116H462.5c4.143,0,7.5-3.358,7.5-7.5S466.643,344.877,462.5,344.877z M362.224,405.354   h-254.13c-26.123-6.503-47.151-18.001-60.834-33.297c-4.004-4.477-6.853-8.691-8.841-12.18h24.63h343.9h24.992   C424.837,372.381,406.479,394.341,362.224,405.354z M64.761,307.247c0-22.66,4.461-44.294,12.534-64.086   c6.337,1.269,10.515,3.978,15.198,7.022c3.957,2.573,8.443,5.49,14.327,7.519c0.81,0.279,1.634,0.411,2.444,0.411   c3.111,0,6.02-1.951,7.091-5.058c0.081-0.234,0.147-0.469,0.204-0.705c0.889-3.711-1.168-7.56-4.85-8.829   c-4.142-1.427-7.492-3.606-11.039-5.913c-4.654-3.026-9.75-6.33-16.97-8.337c28.333-54.752,85.517-92.262,151.301-92.262   c18.277,0,36.039,2.836,53.048,8.425c-26.326,8.004-68.634,24.663-86.264,52.723c-5.964,9.493-9.813,19.718-11.719,30.127   c-3.276-0.591-6.736-0.888-10.438-0.888c-16.065,0-24.409,5.426-31.771,10.212c-3.547,2.306-6.896,4.485-11.038,5.913   c-3.682,1.269-5.74,5.119-4.85,8.83c0.056,0.236,0.123,0.471,0.204,0.705c1.071,3.106,3.979,5.058,7.091,5.058   c0.811,0,1.635-0.132,2.444-0.412c5.884-2.028,10.369-4.945,14.327-7.518c6.691-4.351,11.977-7.788,23.594-7.788   c3.341,0,6.298,0.287,9.03,0.887c-0.146,28.743,14.089,56.935,40.166,73.318c13.718,8.619,29.496,13.175,45.635,13.176   c29.77,0,56.99-15.034,72.812-40.215c5.541-8.818,9.006-19.346,11.026-30.479c8.446-1.908,14.115-5.583,19.216-8.898   c4.702-3.057,8.894-5.776,15.275-7.039c8.136,20.057,12.453,41.748,12.453,64.103c0,12.695-1.405,25.327-4.181,37.63H68.941   C66.166,332.574,64.761,319.942,64.761,307.247z M361.67,71.612l3.948,17.293c0.921,4.038,4.943,6.561,8.98,5.643l17.293-3.948   c0.664-0.151,1.34-0.229,2.009-0.229c4.129,0,7.795,2.93,8.717,6.967c0.532,2.332,0.125,4.732-1.147,6.757   s-3.258,3.434-5.591,3.966L374,113.058c-1.939,0.443-3.623,1.638-4.682,3.322l-29.665,47.217c-0.004,0.006-0.362,0.577-0.362,0.577   c-0.088,0.14-0.163,0.286-0.241,0.431c-0.03,0.055-0.064,0.109-0.092,0.165c-0.099,0.195-0.185,0.394-0.266,0.595   c-0.01,0.024-0.022,0.048-0.031,0.073c-0.563,1.443-0.675,3.036-0.291,4.56c0.144,0.574,10.924,44.24,6.099,80.849   c-0.108,0.455-0.174,0.923-0.194,1.403c-1.568,10.919-4.564,21.149-9.705,29.332c-13.061,20.787-35.53,33.196-60.115,33.195   c-13.307-0.001-26.325-3.762-37.649-10.877c-33.106-20.801-43.119-64.658-22.318-97.765c22.51-35.828,98.117-51.688,98.876-51.844   c0.064-0.013,0.125-0.034,0.188-0.049c0.087-0.02,0.173-0.043,0.259-0.067c0.155-0.042,0.308-0.085,0.458-0.137   c0.076-0.026,0.151-0.055,0.226-0.083c0.154-0.058,0.307-0.117,0.457-0.185c0.073-0.033,0.143-0.07,0.215-0.105   c0.146-0.072,0.292-0.145,0.433-0.226c0.075-0.043,0.148-0.092,0.222-0.138c0.131-0.082,0.263-0.163,0.389-0.253   c0.082-0.059,0.16-0.123,0.241-0.185c0.112-0.087,0.226-0.172,0.333-0.266c0.085-0.074,0.166-0.156,0.248-0.234   c0.096-0.092,0.194-0.181,0.286-0.278c0.079-0.083,0.151-0.174,0.226-0.261c0.088-0.103,0.179-0.203,0.262-0.312   c0.061-0.079,0.115-0.165,0.173-0.247c0.078-0.111,0.161-0.218,0.234-0.333l0.358-0.57c0.001-0.002,29.671-47.227,29.671-47.227   c1.059-1.684,1.404-3.72,0.961-5.659l-4.995-21.878c-1.099-4.814,1.925-9.626,6.74-10.725c0.663-0.152,1.339-0.229,2.008-0.229   C357.083,64.646,360.748,67.575,361.67,71.612z M369.335,237.607c-3.009,1.957-5.795,3.763-9.062,5.145   c1.322-19.567-0.696-39.359-2.957-53.916c11.731,12.084,21.507,25.693,29.094,40.407   C379.136,231.247,374.012,234.567,369.335,237.607z" fill="#fd5b49"/>
	<path d="M305,228c-4.411,0-8,3.589-8,8s3.589,8,8,8s8-3.589,8-8S309.411,228,305,228z" fill="#fd5b49"/>
	<path d="M275,198c-4.411,0-8,3.589-8,8s3.589,8,8,8s8-3.589,8-8S279.411,198,275,198z" fill="#fd5b49"/>
	<path d="M110,302c-4.411,0-8,3.589-8,8s3.589,8,8,8s8-3.589,8-8S114.411,302,110,302z" fill="#fd5b49"/>
</g>
<g>
</g>
<g>
</g>
<g>
</g>
<g>
</g>
<g>
</g>
<g>
</g>
<g>
</g>
<g>
</g>
<g>
</g>
<g>
</g>
<g>
</g>
<g>
</g>
<g>
</g>
<g>
</g>
<g>
</g>
</svg>
